<svg id="mermaid-svg" width="100%" xmlns="http://www.w3.org/2000/svg" xmlns:xlink="http://www.w3.org/1999/xlink" height="650" style="max-width: 345.5px;" viewBox="-20 -20 345.5 650"><style>#mermaid-svg{font-family:"trebuchet ms",verdana,arial,sans-serif;font-size:16px;fill:#333;}#mermaid-svg .error-icon{fill:#552222;}#mermaid-svg .error-text{fill:#552222;stroke:#552222;}#mermaid-svg .edge-thickness-normal{stroke-width:2px;}#mermaid-svg .edge-thickness-thick{stroke-width:3.5px;}#mermaid-svg .edge-pattern-solid{stroke-dasharray:0;}#mermaid-svg .edge-pattern-dashed{stroke-dasharray:3;}#mermaid-svg .edge-pattern-dotted{stroke-dasharray:2;}#mermaid-svg .marker{fill:#333333;stroke:#333333;}#mermaid-svg .marker.cross{stroke:#333333;}#mermaid-svg svg{font-family:"trebuchet ms",verdana,arial,sans-serif;font-size:16px;}#mermaid-svg g.classGroup text{fill:#9370DB;fill:#131300;stroke:none;font-family:"trebuchet ms",verdana,arial,sans-serif;font-size:10px;}#mermaid-svg g.classGroup text .title{font-weight:bolder;}#mermaid-svg .classTitle{font-weight:bolder;}#mermaid-svg .node rect,#mermaid-svg .node circle,#mermaid-svg .node ellipse,#mermaid-svg .node polygon,#mermaid-svg .node path{fill:#ECECFF;stroke:#9370DB;stroke-width:1px;}#mermaid-svg .divider{stroke:#9370DB;stroke:1;}#mermaid-svg g.clickable{cursor:pointer;}#mermaid-svg g.classGroup rect{fill:#ECECFF;stroke:#9370DB;}#mermaid-svg g.classGroup line{stroke:#9370DB;stroke-width:1;}#mermaid-svg .classLabel .box{stroke:none;stroke-width:0;fill:#ECECFF;opacity:0.5;}#mermaid-svg .classLabel .label{fill:#9370DB;font-size:10px;}#mermaid-svg .relation{stroke:#333333;stroke-width:1;fill:none;}#mermaid-svg .dashed-line{stroke-dasharray:3;}#mermaid-svg #compositionStart,#mermaid-svg .composition{fill:#333333 !important;stroke:#333333 !important;stroke-width:1;}#mermaid-svg #compositionEnd,#mermaid-svg .composition{fill:#333333 !important;stroke:#333333 !important;stroke-width:1;}#mermaid-svg #dependencyStart,#mermaid-svg .dependency{fill:#333333 !important;stroke:#333333 !important;stroke-width:1;}#mermaid-svg #dependencyStart,#mermaid-svg .dependency{fill:#333333 !important;stroke:#333333 !important;stroke-width:1;}#mermaid-svg #extensionStart,#mermaid-svg .extension{fill:#333333 !important;stroke:#333333 !important;stroke-width:1;}#mermaid-svg #extensionEnd,#mermaid-svg .extension{fill:#333333 !important;stroke:#333333 !important;stroke-width:1;}#mermaid-svg #aggregationStart,#mermaid-svg .aggregation{fill:#ECECFF !important;stroke:#333333 !important;stroke-width:1;}#mermaid-svg #aggregationEnd,#mermaid-svg .aggregation{fill:#ECECFF !important;stroke:#333333 !important;stroke-width:1;}#mermaid-svg .edgeTerminals{font-size:11px;}#mermaid-svg:root{--mermaid-font-family:"trebuchet ms",verdana,arial,sans-serif;}</style><g></g><defs><marker id="extensionStart" class="extension" refX="0" refY="7" markerWidth="190" markerHeight="240" orient="auto"><path d="M 1,7 L18,13 V 1 Z"></path></marker></defs><defs><marker id="extensionEnd" refX="19" refY="7" markerWidth="20" markerHeight="28" orient="auto"><path d="M 1,1 V 13 L18,7 Z"></path></marker></defs><defs><marker id="compositionStart" class="extension" refX="0" refY="7" markerWidth="190" markerHeight="240" orient="auto"><path d="M 18,7 L9,13 L1,7 L9,1 Z"></path></marker></defs><defs><marker id="compositionEnd" refX="19" refY="7" markerWidth="20" markerHeight="28" orient="auto"><path d="M 18,7 L9,13 L1,7 L9,1 Z"></path></marker></defs><defs><marker id="aggregationStart" class="extension" refX="0" refY="7" markerWidth="190" markerHeight="240" orient="auto"><path d="M 18,7 L9,13 L1,7 L9,1 Z"></path></marker></defs><defs><marker id="aggregationEnd" refX="19" refY="7" markerWidth="20" markerHeight="28" orient="auto"><path d="M 18,7 L9,13 L1,7 L9,1 Z"></path></marker></defs><defs><marker id="dependencyStart" class="extension" refX="0" refY="7" markerWidth="190" markerHeight="240" orient="auto"><path d="M 5,7 L9,13 L1,7 L9,1 Z"></path></marker></defs><defs><marker id="dependencyEnd" refX="19" refY="7" markerWidth="20" markerHeight="28" orient="auto"><path d="M 18,7 L9,13 L14,7 L9,1 Z"></path></marker></defs><g id="classid-Sdf-0" class="classGroup" transform="translate(32,0 )"><rect x="0" y="0" width="152" height="67" class=" "></rect><text y="15" x="0"><tspan x="13.5">«signed distance function»</tspan><tspan class="title" dy="10" x="67.5">Sdf</tspan></text><line x1="0" y1="31" y2="31" x2="152"></line><text x="5" y="41" fill="white" class="classText"></text><line x1="0" y1="36" y2="36" x2="152"></line><text x="5" y="51" fill="white" class="classText"><tspan x="5">eval()</tspan><tspan x="5" dy="10">show()</tspan></text></g><g id="classid-Mesh-1" class="classGroup" transform="translate(160,117 )"><rect x="0" y="0" width="126" height="68" class=" "></rect><text y="15" x="0"><tspan x="18">«mesh generation»</tspan><tspan class="title" dy="10" x="50">Mesh</tspan></text><line x1="0" y1="31" y2="31" x2="126"></line><text x="5" y="41" fill="white" class="classText"><tspan x="5">Blender</tspan></text><line x1="0" y1="47" y2="47" x2="126"></line><text x="5" y="62" fill="white" class="classText"><tspan x="5">generate()</tspan></text></g><g id="classid-Gmodel-2" class="classGroup" transform="translate(0,235 )"><rect x="0" y="0" width="138" height="88" class=" "></rect><text y="15" x="0"><tspan x="24">«graphical models»</tspan><tspan class="title" dy="10" x="50">Gmodel</tspan></text><line x1="0" y1="31" y2="31" x2="138"></line><text x="5" y="41" fill="white" class="classText"><tspan x="5">Material</tspan></text><line x1="0" y1="47" y2="47" x2="138"></line><text x="5" y="62" fill="white" class="classText"><tspan x="5">render()</tspan><tspan x="5" dy="10">bake()</tspan><tspan x="5" dy="10">update()</tspan></text></g><g id="classid-Fem-3" class="classGroup" transform="translate(188,240 )"><rect x="0" y="0" width="110" height="78" class=" "></rect><text y="15" x="0"><tspan x="15.5">«finite elements»</tspan><tspan class="title" dy="10" x="44.5">Fem</tspan></text><line x1="0" y1="31" y2="31" x2="110"></line><text x="5" y="41" fill="white" class="classText"><tspan x="5">Material</tspan></text><line x1="0" y1="47" y2="47" x2="110"></line><text x="5" y="62" fill="white" class="classText"><tspan x="5">solve()</tspan><tspan x="5" dy="10">optimize()</tspan></text></g><g id="classid-Model-4" class="classGroup" transform="translate(2,373 )"><rect x="0" y="0" width="154" height="88" class=" "></rect><text y="15" x="0"><tspan x="19.5">«dynamic beam models»</tspan><tspan class="title" dy="10" x="62.5">Model</tspan></text><line x1="0" y1="31" y2="31" x2="154"></line><text x="5" y="41" fill="white" class="classText"><tspan x="5">Rig</tspan><tspan x="5" dy="10">Shapes</tspan></text><line x1="0" y1="57" y2="57" x2="154"></line><text x="5" y="72" fill="white" class="classText"><tspan x="5">build()</tspan><tspan x="5" dy="10">simulate()</tspan></text></g><g id="classid-Bdog-5" class="classGroup" transform="translate(53.5,511 )"><rect x="0" y="0" width="205" height="99" class=" "></rect><text y="15" x="0"><tspan x="17.5">«Real-time interface via Balloondog»</tspan><tspan class="title" dy="10" x="90">Bdog</tspan></text><line x1="0" y1="32" y2="32" x2="205"></line><text x="5" y="42" fill="white" class="classText"><tspan x="5">SetPoint</tspan></text><line x1="0" y1="48" y2="48" x2="205"></line><text x="5" y="63" fill="white" class="classText"><tspan x="5">connect()</tspan><tspan x="5" dy="10">execute()</tspan><tspan x="5" dy="10">shell()</tspan><tspan x="5" dy="10">close()</tspan></text></g><path d="M173.85470085470087,67L182.04558404558406,71.16666666666667C190.23646723646723,75.33333333333333,206.61823361823363,83.66666666666667,214.80911680911683,92C223,100.33333333333333,223,108.66666666666667,223,112.83333333333333L223,117" id="edge0" class="relation" marker-end="url(#dependencyEnd)"></path><g class="classLabel"><rect class="box" x="169.0625" y="73.65625" width="81.015625" height="16.015625"></rect><text class="label" x="209.5686692571765" y="85.16754044821587" fill="red" text-anchor="middle">Meshing domain</text></g><path d="M79.94017094017094,67L76.45014245014245,71.16666666666667C72.96011396011396,75.33333333333333,65.98005698005699,83.66666666666667,62.49002849002849,97.66666666666667C59,111.66666666666667,59,131.33333333333334,59,151C59,170.66666666666666,59,190.33333333333334,59.60386473429952,204.33333333333334C60.207729468599034,218.33333333333334,61.41545893719806,226.66666666666666,62.01932367149758,230.83333333333334L62.6231884057971,235" id="edge1" class="relation dashed-line" marker-end="url(#dependencyEnd)"></path><g class="classLabel"><rect class="box" x="18.5" y="135.8125" width="81" height="16.015625"></rect><text class="label" x="59" y="147.3249897463557" fill="red" text-anchor="middle">Implicit modeling</text></g><path d="M178.6271186440678,185L173.18926553672316,189.16666666666666C167.75141242937852,193.33333333333334,156.87570621468925,201.66666666666666,146.78809465323835,210C136.70048309178745,218.33333333333334,127.40096618357488,226.66666666666666,122.75120772946859,230.83333333333334L118.10144927536231,235" id="edge2" class="relation dashed-line" marker-end="url(#dependencyEnd)"></path><path d="M69,323L69,327.1666666666667C69,331.3333333333333,69,339.6666666666667,69.60386473429952,348C70.20772946859903,356.3333333333333,71.41545893719807,364.6666666666667,72.01932367149759,368.8333333333333L72.6231884057971,373" id="edge3" class="relation dashed-line" marker-end="url(#dependencyEnd)"></path><g class="classLabel"><rect class="box" x="42.515625" y="336.625" width="53.015625" height="16.015625"></rect><text class="label" x="69.01873079891239" y="348.1292425124956" fill="red" text-anchor="middle">Rendering</text></g><path d="M206.864406779661,185L204.8870056497175,189.16666666666666C202.909604519774,193.33333333333334,198.95480225988703,201.66666666666666,200.45566199950872,210.83333333333334C201.9565217391304,220,208.91304347826087,230,212.3913043478261,235L215.8695652173913,240" id="edge4" class="relation" marker-end="url(#dependencyEnd)"></path><g class="classLabel"><rect class="box" x="180.53125" y="202.140625" width="34.015625" height="16.015625"></rect><text class="label" x="197.53340761854736" y="213.6417734516618" fill="red" text-anchor="middle">Import</text></g><path d="M248.65217391304347,240L249.37681159420288,235C250.10144927536234,230,251.55072463768116,220,250.156718251044,210.83333333333334C248.76271186440678,201.66666666666666,244.52542372881354,193.33333333333334,242.40677966101694,189.16666666666666L240.28813559322035,185" id="edge5" class="relation" marker-end="url(#dependencyEnd)"></path><g class="classLabel"><rect class="box" x="213.828125" y="199.609375" width="78.015625" height="16.015625"></rect><text class="label" x="252.83740994501517" y="211.12187137939534" fill="red" text-anchor="middle">Export topology</text></g><path d="M199.47826086956522,318L193.89855072463766,323C188.31884057971016,328,177.1594202898551,338,166.32608695652175,347.1666666666667C155.4927536231884,356.3333333333333,144.9855072463768,364.6666666666667,139.73188405797103,368.8333333333333L134.47826086956522,373" id="edge6" class="relation dashed-line" marker-end="url(#dependencyEnd)"></path><g class="classLabel"><rect class="box" x="127.25" y="334.921875" width="81.015625" height="16.015625"></rect><text class="label" x="167.75800869719762" y="346.4246415570567" fill="red" text-anchor="middle">FEM-driven data</text></g><path d="M79,461L79,465.1666666666667C79,469.3333333333333,79,477.6666666666667,83.30648769574944,486C87.61297539149888,494.3333333333333,96.22595078299776,502.6666666666667,100.53243847874721,506.8333333333333L104.83892617449663,511" id="edge7" class="relation dashed-line" marker-end="url(#dependencyEnd)"></path><g class="classLabel"><rect class="box" x="33.421875" y="478.296875" width="99.015625" height="16.015625"></rect><text class="label" x="82.93599599907594" y="489.80820392118386" fill="red" text-anchor="middle">Model-based control</text></g><path d="M248.65217391304347,318L249.37681159420288,323C250.10144927536234,328,251.55072463768116,338,252.2753623188406,354.5C253,371,253,394,253,417C253,440,253,463,247.57494407158836,478.6666666666667C242.14988814317675,494.3333333333333,231.29977628635348,502.6666666666667,225.87472035794187,506.8333333333333L220.4496644295302,511" id="edge8" class="relation dashed-line" marker-end="url(#dependencyEnd)"></path><g class="classLabel"><rect class="box" x="200.5" y="410.859375" width="105" height="16.015625"></rect><text class="label" x="253" y="422.3647673449561" fill="red" text-anchor="middle">FEM-based IK-control</text></g></svg>