<?xml version="1.0" encoding="UTF-8" standalone="no"?>
<!-- Created with Inkscape (http://www.inkscape.org/) -->

<svg
   width="293.68686mm"
   height="389.25751mm"
   viewBox="0 0 293.68686 389.25751"
   version="1.1"
   id="svg5"
   inkscape:export-filename="/home/brandon/Documents/MATLAB/SorotokiCode/data/contours/PneuGripper.png"
   inkscape:export-xdpi="90"
   inkscape:export-ydpi="90"
   inkscape:version="1.1.2 (0a00cf5339, 2022-02-04)"
   sodipodi:docname="PneunetGripper.svg"
   xmlns:inkscape="http://www.inkscape.org/namespaces/inkscape"
   xmlns:sodipodi="http://sodipodi.sourceforge.net/DTD/sodipodi-0.dtd"
   xmlns="http://www.w3.org/2000/svg"
   xmlns:svg="http://www.w3.org/2000/svg">
  <sodipodi:namedview
     id="namedview7"
     pagecolor="#ffffff"
     bordercolor="#666666"
     borderopacity="1.0"
     inkscape:pageshadow="2"
     inkscape:pageopacity="0.0"
     inkscape:pagecheckerboard="0"
     inkscape:document-units="mm"
     showgrid="false"
     fit-margin-top="0"
     fit-margin-left="0"
     fit-margin-right="0"
     fit-margin-bottom="0"
     inkscape:zoom="0.33184273"
     inkscape:cx="964.31221"
     inkscape:cy="952.25831"
     inkscape:window-width="2048"
     inkscape:window-height="1083"
     inkscape:window-x="0"
     inkscape:window-y="32"
     inkscape:window-maximized="1"
     inkscape:current-layer="layer1" />
  <defs
     id="defs2" />
  <g
     inkscape:label="Layer 1"
     inkscape:groupmode="layer"
     id="layer1"
     transform="translate(-115.60555,76.36172)">
    <rect
       style="fill:#fefefe;fill-opacity:1;stroke:#5454aa;stroke-width:3.04559;stroke-linecap:round;stroke-linejoin:round"
       id="rect1893"
       width="435.00516"
       height="524.71155"
       x="85.293304"
       y="-111.35217" />
    <path
       style="fill:#000000;stroke-width:0.264583"
       d="m 245.93109,312.37107 c -0.36424,-0.36426 -0.41577,-1.73964 -0.41577,-11.0975 v -10.68173 l 0.58803,-0.41188 c 0.51426,-0.36021 2.34716,-0.41188 14.609,-0.41188 h 14.02095 l 8.54205,-8.52755 8.54205,-8.52754 v -3.02919 c 0,-3.29256 -0.1583,-4.04249 -1.40138,-6.63864 -2.31791,-4.84094 -8.19743,-7.77882 -13.52687,-6.75912 -2.56332,0.49043 -3.28967,0.84518 -11.13321,5.43743 -0.43656,0.25558 -3.53219,2.04099 -6.87917,3.96753 -3.34698,1.92654 -6.4426,3.71242 -6.87916,3.96859 -6.5516,3.84453 -13.86879,7.92729 -15.27297,8.52181 -0.97857,0.41433 -2.82403,0.94779 -4.10104,1.18546 -6.31495,1.17533 -13.87904,-1.76652 -17.76051,-6.9075 -1.22194,-1.61846 -2.64734,-4.21437 -3.13532,-5.71003 -1.16135,-3.55952 -1.16594,-8.58901 -0.0109,-11.93175 0.94077,-2.72262 2.35676,-5.06863 4.25999,-7.05792 1.84833,-1.93191 2.95188,-2.69516 8.58213,-5.93545 2.2854,-1.31528 4.51246,-2.60081 4.94902,-2.85674 0.43657,-0.25593 3.53219,-2.0416 6.87917,-3.96814 3.34698,-1.92654 6.4426,-3.71237 6.87917,-3.96851 0.43656,-0.25612 3.11547,-1.80393 5.95312,-3.43956 2.83766,-1.63563 5.59078,-3.22754 6.11805,-3.53758 0.52727,-0.31004 3.25484,-1.87341 6.06127,-3.47414 3.46305,-1.97525 5.51128,-3.32285 6.37452,-4.19396 3.89531,-3.93089 2.80545,-10.54608 -2.18496,-13.26222 -1.23672,-0.6731 -1.6963,-0.7715 -3.66591,-0.78483 -2.70074,-0.0183 -2.85963,0.0422 -8.20505,3.12245 -9.43835,5.4388 -16.05715,9.25791 -16.80104,9.69436 -0.43657,0.25612 -3.11547,1.80404 -5.95313,3.43982 -2.83765,1.63579 -5.51656,3.18265 -5.95312,3.4375 -3.77719,2.20488 -5.47044,3.14952 -6.53528,3.64596 -6.56302,3.05982 -14.95906,1.80591 -20.30575,-3.03258 -4.17243,-3.77584 -6.33892,-8.58766 -6.35069,-14.10504 -0.0156,-7.30081 3.58769,-13.13424 10.59052,-17.14529 0.86776,-0.49702 6.17603,-3.55714 19.02932,-10.97003 3.27422,-1.88833 6.31031,-3.64289 6.74688,-3.89903 0.43656,-0.25612 3.11547,-1.79155 5.95312,-3.41204 5.51892,-3.15169 6.84192,-4.24539 7.93835,-6.56252 0.86024,-1.81795 0.85,-4.97567 -0.0221,-6.82672 -0.89236,-1.89402 -2.73879,-3.64319 -4.56835,-4.32772 -1.72499,-0.6454 -4.24372,-0.74968 -5.71034,-0.23642 -0.7658,0.268 -5.32629,2.7869 -9.94066,5.49055 -0.43656,0.25579 -3.11547,1.80344 -5.95313,3.43922 -2.83765,1.63577 -5.51656,3.18342 -5.95312,3.43921 -12.12981,7.10708 -13.06715,7.49191 -18.25625,7.49533 -3.43929,0.003 -5.77238,-0.51361 -8.46667,-1.87206 -9.21309,-4.64516 -13.05633,-15.80537 -8.61,-25.0022 1.87059,-3.86913 4.60835,-6.59047 9.35059,-9.2945 1.19341,-0.68048 2.64608,-1.51772 3.22816,-1.86054 0.58209,-0.34281 3.38006,-1.96154 6.21771,-3.59718 2.83766,-1.63563 5.51656,-3.18264 5.95313,-3.4378 0.43656,-0.25516 3.41312,-1.96573 6.61458,-3.80126 6.59663,-3.78211 8.14224,-5.08916 8.94039,-7.56049 1.58592,-4.91053 -1.1349,-9.83067 -6.08704,-11.00733 -3.02484,-0.71873 -4.58035,-0.11385 -13.96585,5.43075 -2.88219,1.70269 -11.4286,6.59885 -12.96458,7.42728 -3.61143,1.94784 -7.74018,2.8079 -11.24479,2.34243 -4.7682,-0.6333 -8.90737,-2.69889 -11.84152,-5.90931 -6.85097,-7.49605 -6.72306,-18.647132 0.29871,-26.040902 1.40829,-1.48289 3.28088,-2.75495 8.35232,-5.67376 2.26409,-1.30307 4.47371,-2.5785 4.91028,-2.83429 0.43656,-0.25579 3.07321,-1.77479 5.85922,-3.37555 2.78602,-1.60076 5.59319,-3.27355 6.23818,-3.71731 2.95727,-2.03466 4.28362,-5.73346 3.26252,-9.09821 -0.50932,-1.67832 -0.81624,-2.20681 -2.07411,-3.57144 -1.56119,-1.69369 -3.50296,-2.50412 -5.99713,-2.50301 -2.36764,0.001 -3.02951,0.25535 -7.68556,2.95291 -1.81901,1.05387 -3.66448,2.12285 -4.10104,2.37551 -0.43656,0.25266 -1.43734,0.84102 -2.22395,1.30748 -2.0961,1.24297 -4.88881,2.61803 -6.17543,3.0406 -4.91571,1.61452 -10.02161,1.16599 -14.69748,-1.29111 -5.73558,-3.01397 -9.5309,-8.88912 -10.02833,-15.52389 -0.24156,-3.22195 0.63835,-7.05712 2.37857,-10.36719 1.00657,-1.914604 3.75738,-4.91718 5.73564,-6.260589 1.66608,-1.131408 1.61821,-1.10322 8.76961,-5.164709 7.36741,-4.184163 8.72384,-5.674011 8.9157,-9.79265 0.0842,-1.808564 0.003,-2.334985 -0.54973,-3.586059 -1.13397,-2.564109 -2.82921,-4.05239 -5.61835,-4.932447 -2.25391,-0.711177 -4.48265,-0.273744 -7.471,1.466326 -2.9862,1.738815 -5.16709,2.823739 -6.41962,3.193563 -0.65485,0.193347 -1.53582,0.456716 -1.95771,0.585258 -0.4219,0.128546 -2.195,0.233717 -3.94022,0.233717 -2.44976,0 -3.60186,-0.126637 -5.05375,-0.555508 -2.67842,-0.791173 -5.58244,-2.377943 -7.51854,-4.10817 -1.50973,-1.349192 -3.67055,-4.2072529 -4.47552,-5.9196549 -0.96457,-2.051934 -1.92446,-6.142993 -1.92446,-8.20208402 0,-1.44771198 0.56694,-4.42239398 1.18504,-6.21770798 1.13316,-3.29139 3.52552,-6.6059471 6.22266,-8.6213421 0.80037,-0.598059 1.4964,-1.199383 1.54675,-1.336273 0.0503,-0.13689 -0.12825,-0.690867 -0.39688,-1.231056 -0.74233,-1.492787 -0.67915,-5.619333 0.12847,-8.390496 0.33928,-1.164167 0.84009,-3.000182 1.11292,-4.080034 0.53324,-2.110597 0.68956,-2.343669 2.10666,-3.141033 0.50932,-0.286583 3.04319,-1.737318 5.63081,-3.223853 3.74801,-2.153153 4.78033,-2.640073 5.07637,-2.394384 0.20438,0.169622 1.36145,2.043314 2.57127,4.163764 1.20982,2.120448 2.45318,4.285057 2.76302,4.810242 3.30089,5.595027 5.38978,9.450083 5.38978,9.946841 0,0.595371 -0.35045,0.911151 -2.16593,1.951673 -5.15879,2.956684 -14.08201,8.10482 -16.09032,9.2830861 -2.98813,1.753132 -4.60505,3.889682 -5.2663,6.958717 -0.58343,2.70791198 0.45442,5.982472 2.56563,8.094877 1.71561,1.716584 4.06301,2.687396 6.49806,2.687396 2.25604,0 3.43552,-0.360243 5.92576,-1.80989 0.98243,-0.571897 2.63276,-1.469795 3.66741,-1.995326 9.24155,-4.69407102 20.24119,-0.804161 24.58601,8.6945839 1.09869,2.401988 1.44635,4.152215 1.44635,7.281466 0,4.075713 -0.73773,6.646492 -2.81966,9.825768 -1.73265,2.645891 -4.00358,4.590701 -8.44107,7.228885 -2.17405,1.292516 -4.84578,2.887893 -5.93719,3.545284 -1.09141,0.657389 -2.55614,1.473839 -3.25497,1.814329 -3.82535,1.86383 -6.08178,6.19627 -5.22811,10.03816 0.8444,3.80018 3.12247,6.25196 6.86422,7.38763 3.25639,0.98835 4.75768,0.45811 13.92199,-4.91711 8.10219,-4.75224 9.80178,-5.38553 14.41979,-5.37301 2.34238,0.006 3.48126,0.14039 4.9481,0.58237 4.32038,1.30179 7.41801,3.56925 9.9343,7.2719 4.34279,6.39028 4.07504,14.84135 -0.66597,21.02075 -2.14521,2.79605 -2.57608,3.09341 -15.01018,10.35917 -1.81901,1.06292 -4.25979,2.49682 -5.42396,3.18643 -1.16417,0.68962 -2.95011,1.6949 -3.96875,2.23395 -1.01865,0.53906 -2.24472,1.27849 -2.72462,1.64319 -1.89695,1.44161 -3.48641,4.798122 -3.48709,7.363762 -5.3e-4,2.49807 1.70254,5.79766 3.7674,7.29856 1.92959,1.40258 2.76199,1.65714 5.48702,1.67802 2.67819,0.0205 3.37545,-0.16654 5.68854,-1.52607 1.80902,-1.06327 2.09701,-1.22994 8.86354,-5.12974 3.27422,-1.88705 7.14375,-4.12648 8.59896,-4.97651 3.52298,-2.057892 5.73203,-2.959762 8.51341,-3.475692 6.24983,-1.15931 13.51203,1.79937 17.32286,7.057472 2.68642,3.70668 4.0437,8.77601 3.41109,12.74012 -1.04088,6.52236 -3.97529,10.6366 -10.19736,14.29739 -1.74625,1.02741 -3.61893,2.15084 -4.16152,2.49651 -0.54258,0.34566 -1.05115,0.62848 -1.13015,0.62848 -0.079,0 -0.58757,0.28282 -1.13015,0.62849 -0.54258,0.34566 -2.44503,1.47676 -4.22766,2.51354 -6.72634,3.91205 -9.78784,5.70033 -11.84011,6.91603 -1.16416,0.68962 -2.9501,1.6949 -3.96875,2.23395 -2.53126,1.33952 -3.35799,2.01273 -4.32799,3.52436 -2.5956,4.04488 -2.02305,8.7743 1.44605,11.94486 2.05145,1.87492 2.98456,2.24447 5.94404,2.35411 2.21042,0.0819 2.69891,0.0162 3.83646,-0.51581 1.04275,-0.48769 7.87653,-4.33755 12.15144,-6.84561 0.43657,-0.25613 3.53219,-2.04195 6.87917,-3.9685 3.34698,-1.92655 6.50214,-3.74904 7.01146,-4.04997 3.79384,-2.24162 6.26206,-3.46605 8.16786,-4.05193 2.00357,-0.61593 2.53334,-0.67027 5.55625,-0.56992 3.37175,0.11192 4.5155,0.36341 7.17636,1.57791 4.49601,2.05213 7.85502,5.99309 9.55778,11.21367 0.87522,2.68336 0.86246,7.38192 -0.0276,10.16774 -1.02739,3.21569 -2.5693,5.69841 -4.94535,7.96287 -1.62887,1.55237 -2.11513,1.87852 -7.01049,4.70228 -2.23026,1.28649 -5.51354,3.18982 -7.29617,4.22966 -1.78263,1.03984 -4.69966,2.73881 -6.48229,3.77552 -1.78263,1.0367 -3.59833,2.09349 -4.0349,2.34842 -0.43656,0.25493 -2.25226,1.31173 -4.03489,2.34842 -1.78263,1.03671 -4.69966,2.73409 -6.48229,3.772 -1.78263,1.03788 -3.90295,2.23052 -4.71182,2.65031 -5.72828,2.97285 -7.00694,10.13081 -2.65341,14.85384 2.07119,2.24697 6.00863,3.36833 8.96309,2.55259 1.43893,-0.39727 2.57397,-0.99944 9.44849,-5.01256 0.43656,-0.25487 3.11547,-1.80173 5.95312,-3.43752 2.83766,-1.63578 5.51657,-3.1837 5.95313,-3.43982 0.43656,-0.25614 3.53219,-2.04197 6.87917,-3.96851 3.34697,-1.92654 6.4426,-3.71142 6.87916,-3.96639 7.77609,-4.5416 8.77496,-4.89715 13.75834,-4.89715 2.89891,0 3.73071,0.0971 5.29166,0.6178 3.099,1.03375 4.87979,2.12693 7.16702,4.39962 3.72559,3.70192 5.4007,7.64929 5.4007,12.72673 0,6.94923 -3.36483,12.51357 -9.79091,16.19104 -1.73508,0.99296 -11.24117,6.47616 -12.03722,6.94317 -0.43657,0.25615 -3.53219,2.04198 -6.87917,3.96851 -3.34698,1.92654 -6.44261,3.71237 -6.87917,3.96852 -0.43656,0.25611 -3.11547,1.80393 -5.95312,3.43955 -2.83766,1.63563 -5.58938,3.22755 -6.11494,3.53759 -0.52556,0.31004 -2.41846,1.39716 -4.20645,2.4158 -1.78799,1.01865 -3.80427,2.34731 -4.48062,2.95259 -2.90489,2.59967 -3.77969,7.19342 -2.04471,10.73711 1.84107,3.76042 6.08128,5.99647 9.90141,5.22148 1.31986,-0.26779 4.16423,-1.4767 4.96093,-2.10849 0.14552,-0.11542 0.6813,-0.4463 1.19063,-0.73533 1.17657,-0.66768 10.98154,-6.31942 12.03854,-6.93923 0.43656,-0.25599 3.11547,-1.8038 5.95312,-3.43959 2.83766,-1.63578 5.54633,-3.19793 6.01927,-3.47143 0.47295,-0.27353 1.24685,-0.7211 1.7198,-0.99463 0.47294,-0.2735 3.18161,-1.83565 6.01927,-3.47144 2.83766,-1.63578 5.51657,-3.1837 5.95313,-3.43982 0.43656,-0.25614 3.47266,-2.01059 6.74687,-3.89882 3.27422,-1.88822 7.65321,-4.41417 9.73108,-5.61324 2.07787,-1.19906 3.93696,-2.1191 4.1313,-2.04454 0.29334,0.11258 1.31417,1.71831 3.22607,5.07455 0.34418,0.60418 6.02021,10.43757 6.71979,11.64167 0.25364,0.43656 0.92392,1.56765 1.48948,2.51354 l 1.02833,1.71979 0.0734,17.52865 0.0734,17.52864 h 21.44138 c 14.27413,0 21.61246,0.0916 21.95316,0.2739 0.49346,0.26408 0.51178,0.67014 0.51178,11.34877 0,9.85478 -0.0461,11.09258 -0.41852,11.23548 -0.23018,0.0883 -24.03417,0.1606 -52.89776,0.1606 -47.35564,0 -52.51985,-0.0406 -52.89504,-0.41576 z m 132.45798,0.0983 c -0.24115,-0.24114 -0.3202,-5.125 -0.32872,-20.30677 -0.008,-14.92829 -0.0939,-20.32421 -0.33766,-21.31219 -0.68377,-2.77074 -2.24343,-4.67926 -4.90678,-6.00424 l -1.22664,-0.61026 -18.78541,-0.13232 -18.78542,-0.13234 -0.14781,-4.7625 c -0.11247,-3.62398 -0.24843,-4.95226 -0.56876,-5.55625 -0.23152,-0.43657 -1.04204,-2.28204 -1.80115,-4.10105 -0.75911,-1.81901 -1.66403,-3.93588 -2.01093,-4.70418 -0.3469,-0.7683 -0.63072,-1.44939 -0.63072,-1.51352 0,-0.0641 -0.28848,-0.74729 -0.64105,-1.5181 -0.35258,-0.77081 -0.89458,-2.04468 -1.20444,-2.83078 -0.30986,-0.78613 -0.78124,-1.91516 -1.04751,-2.50897 -0.26627,-0.5938 -1.10989,-2.56794 -1.8747,-4.38695 -0.76482,-1.81901 -2.39304,-5.05854 -3.61828,-7.19894 -1.75635,-3.06824 -2.17377,-3.9924 -1.97286,-4.36782 0.14016,-0.26188 1.71128,-1.3086 3.49138,-2.32606 1.7801,-1.01743 3.66655,-2.10367 4.1921,-2.41384 0.52556,-0.31017 3.63447,-2.10767 6.90869,-3.99442 9.88708,-5.69735 10.95346,-6.33857 11.20534,-6.73788 0.17278,-0.27392 -0.19643,-1.13612 -1.28914,-3.01045 -0.84219,-1.44465 -2.84777,-4.91858 -4.45683,-7.71986 -2.10267,-3.66061 -3.06025,-5.09323 -3.40439,-5.09323 -0.26335,0 -0.92276,0.28575 -1.46534,0.63503 -2.2853,1.47103 -10.47585,6.02607 -11.76208,6.54127 -2.28025,0.91334 -4.16395,1.27153 -6.68693,1.27153 -4.73625,0 -8.79388,-1.62237 -12.28428,-4.91167 -3.10376,-2.92492 -4.62978,-5.7848 -5.48259,-10.27486 -0.95246,-5.01467 0.85743,-10.98993 4.51225,-14.89694 1.74925,-1.86996 2.7342,-2.60426 6.17104,-4.60067 1.27659,-0.74156 2.67826,-1.55584 3.11483,-1.80952 0.43656,-0.25368 1.86531,-1.08128 3.175,-1.8391 1.30968,-0.75783 2.48522,-1.47835 2.61231,-1.60117 0.19192,-0.18548 -1.23718,-2.85925 -4.5957,-8.59827 -0.25548,-0.43656 -1.32313,-2.28203 -2.37256,-4.10104 -1.04944,-1.81901 -1.94948,-3.34921 -2.00009,-3.40043 -0.0506,-0.0512 -2.94299,1.53336 -6.42749,3.5213 -7.87227,4.4912 -9.12733,4.95961 -13.41022,5.00492 -3.58235,0.0379 -5.16652,-0.27086 -7.9375,-1.54698 -4.68101,-2.15575 -7.98115,-5.94016 -9.69656,-11.11944 -0.51031,-1.54077 -0.61327,-2.40801 -0.61252,-5.15937 7.9e-4,-3.31217 0.10708,-3.8973 1.24834,-6.87917 0.62145,-1.62372 2.22258,-4.16702 3.47483,-5.51957 1.17126,-1.26508 3.06707,-2.62688 6.11507,-4.39262 1.45521,-0.84302 3.00302,-1.74221 3.43959,-1.9982 0.43656,-0.25599 1.78701,-1.03356 3.001,-1.72792 1.21399,-0.69437 2.27458,-1.43792 2.35686,-1.65234 0.0823,-0.21443 -0.0102,-0.64198 -0.20552,-0.95013 -0.27883,-0.4399 -3.19211,-5.46901 -6.45529,-11.143602 -0.16736,-0.29104 -0.69817,-1.21377 -1.17958,-2.05052 -0.55473,-0.96419 -1.04965,-1.52135 -1.3514,-1.52135 -0.26186,0 -2.78057,1.32133 -5.59714,2.93629 -7.42107,4.255102 -8.17971,4.600412 -11.55019,5.257172 -1.91551,0.37325 -3.6109,0.34293 -5.96034,-0.10659 -6.75189,-1.29185 -11.79762,-5.747012 -14.10318,-12.452502 -0.58729,-1.70806 -0.81359,-7.34466 -0.36476,-9.08532 1.15777,-4.49013 3.21071,-7.69515 6.65148,-10.38418 0.63578,-0.49688 1.45363,-1.07338 1.81743,-1.28111 0.91648,-0.52332 4.93528,-2.86458 6.21771,-3.6223 0.58208,-0.34391 1.86007,-1.07289 2.83998,-1.61994 0.9799,-0.54706 1.84377,-1.15494 1.9197,-1.35086 0.0759,-0.19592 -0.6813,-1.74373 -1.68275,-3.43958 -1.00145,-1.69586 -2.97524,-5.10743 -4.38621,-7.58129 -1.41097,-2.47385 -2.66627,-4.60144 -2.78956,-4.72796 -0.12587,-0.12917 -0.84264,0.12068 -1.63454,0.56975 -0.77571,0.43989 -1.85686,1.04943 -2.40256,1.35453 -0.5457,0.3051 -1.43867,0.80968 -1.98438,1.1213 -0.5457,0.31162 -1.52796,0.86354 -2.18281,1.2265 -0.65484,0.36296 -1.84547,1.03736 -2.64583,1.49866 -3.25618,1.87675 -5.71303,2.5291 -9.525,2.5291 -3.45789,0 -5.19262,-0.40059 -8.1317,-1.87781 -11.22153,-5.64009 -13.24196,-20.840337 -3.89181,-29.279185 0.96677,-0.872548 2.77595,-2.166607 4.0204,-2.875688 1.24446,-0.709078 2.76371,-1.586891 3.37613,-1.950693 0.61242,-0.363802 2.31633,-1.350307 3.78648,-2.192229 1.47015,-0.841926 2.72797,-1.619729 2.79517,-1.728454 0.0672,-0.108726 -0.83848,-1.860662 -2.01261,-3.893188 -1.17412,-2.0325269 -3.19932,-5.5409729 -4.50044,-7.7965459 -1.30111,-2.255573 -2.40767,-4.14323002 -2.45902,-4.19479402 -0.13267,-0.133213 -1.52276,0.599979 -5.94718,3.13679102 -0.94589,0.542341 -2.43417,1.375913 -3.3073,1.852388 -0.87312,0.476472 -2.09139,1.143955 -2.70725,1.483294 -2.90994,1.603364 -7.2995,2.407049 -10.52191,1.92646 -5.57245,-0.831072 -9.93436,-3.545882 -12.85749,-8.00238102 -3.50442,-5.34270198 -3.89969,-12.93614608 -0.94656,-18.18397208 2.03681,-3.619494 4.3196,-5.806871 8.54861,-8.191304 4.81282,-2.713601 6.77767,-5.226651 6.81798,-8.720233 0.0187,-1.622751 -0.0603,-1.854155 -1.40036,-4.101042 -0.78111,-1.309687 -1.69097,-2.857344 -2.0219,-3.439236 -0.93224,-1.639173 -2.98432,-2.513889 -5.89759,-2.513889 -2.12662,0 -2.80402,0.26864 -7.58852,3.009389 -1.74625,1.000321 -3.53219,2.028013 -3.96875,2.283762 -8.80296,5.156978 -12.05493,6.887533 -12.49756,6.650643 -0.26341,-0.140969 -1.04474,-1.248883 -1.7363,-2.462032 -0.69156,-1.213146 -1.53787,-2.68197 -1.88069,-3.264054 -0.53396,-0.906637 -5.59205,-9.668904 -7.06159,-12.232975 -0.26979,-0.470742 -0.43127,-1.010336 -0.35884,-1.199095 0.0724,-0.188759 0.81353,-0.727919 1.64688,-1.198131 0.83335,-0.470215 2.06257,-1.180777 2.73159,-1.579033 0.66903,-0.398254 2.55641,-1.485945 4.19418,-2.417093 l 2.97777,-1.692992 1.36207,0.278219 c 1.24947,0.25522 2.46707,0.568111 6.91832,1.777813 2.51129,0.682487 4.56174,2.088687 5.59421,3.836503 0.26015,0.44041 0.60177,0.800743 0.75914,0.800743 0.41541,0 2.11113,-1.827419 2.72234,-2.933782 0.28848,-0.522174 0.67399,-1.617361 0.85669,-2.433749 0.58151,-2.598499 0.14357,-3.892058 -3.40336,-10.052496 -0.65195,-1.132327 -0.72938,-1.850298 -0.24308,-2.253892 1.06073,-0.880328 10.69879,-6.149568 11.12917,-6.084447 0.36626,0.05542 1.55449,1.887143 4.0841,6.295866 1.96215,3.419739 3.77713,6.574896 4.03328,7.011458 0.43785,0.746226 2.36735,4.08954 10.84148,18.785417 1.92998,3.346979 3.71861,6.442604 3.97474,6.879166 0.25613,0.436563 1.80405,3.115469 3.43983,5.953125 1.63578,2.837657 3.1837,5.516563 3.43983,5.953126 0.25613,0.436562 2.04196,3.532188 3.9685,6.879167 1.92655,3.346979 3.71238,6.442604 3.9685,6.879167 0.25613,0.436562 1.80406,3.1154681 3.43984,5.9531251 1.63577,2.837656 3.18359,5.51656198 3.43958,5.95312498 0.25599,0.436562 1.8038,3.11546902 3.43958,5.95312502 1.63578,2.837656 3.19793,5.5463279 3.47145,6.0192709 0.27351,0.472943 0.72109,1.246849 0.99461,1.719792 0.27351,0.472942 1.83566,3.181614 3.47144,6.01927 1.63578,2.837657 3.1837,5.516563 3.43983,5.953126 0.25613,0.436562 2.02773,3.502421 3.93689,6.81302 l 6.9424,12.038544 c 1.90916,3.3106 3.68076,6.37646 3.93689,6.81302 0.25613,0.43656 1.80405,3.11547 3.43983,5.95312 1.63578,2.83766 3.1837,5.51657 3.43983,5.95313 0.25613,0.43656 2.04195,3.53219 3.9685,6.87916 1.92655,3.34698 3.71249,6.44261 3.96875,6.87917 0.43788,0.74595 2.34302,4.04699 10.84168,18.78542 1.92998,3.34698 3.71861,6.442602 3.97474,6.879162 0.25613,0.43657 1.80405,3.11547 3.43983,5.95313 1.63578,2.83766 3.1837,5.51656 3.43983,5.95312 0.25613,0.43657 2.04196,3.53219 3.9685,6.87917 1.92655,3.34698 3.71238,6.44261 3.96851,6.87917 0.25613,0.43656 1.80405,3.11547 3.43983,5.95312 1.63578,2.83766 3.1837,5.51657 3.43983,5.95313 0.25613,0.43656 2.04195,3.53219 3.9685,6.87916 1.92655,3.34698 3.71237,6.44261 3.9685,6.87917 0.25613,0.43656 1.80405,3.11547 3.43983,5.95313 1.63578,2.83765 3.18371,5.51656 3.43984,5.95312 0.25612,0.43656 2.04195,3.53219 3.9685,6.87917 1.92654,3.34698 3.71237,6.4426 3.9685,6.87917 0.25613,0.43656 1.80405,3.11546 3.43983,5.95312 1.63578,2.83766 3.1836,5.51656 3.43958,5.95313 0.25599,0.43656 1.8038,3.11546 3.43959,5.95312 1.63578,2.83766 3.19794,5.54633 3.47144,6.01927 1.19522,2.06669 1.62065,2.80466 3.89464,6.75595 2.22869,3.87258 3.99502,6.57212 9.47234,14.47686 1.15959,1.67349 3.18003,4.59052 4.48985,6.4823 1.30985,1.89177 3.61889,5.22552 5.13122,7.40833 3.36227,4.85288 6.10645,8.81944 8.87775,12.83229 l 2.1013,3.04271 0.13229,8.92836 0.13229,8.92837 7.18201,7.21122 c 3.9501,3.96616 7.31361,7.47128 7.47448,7.78915 0.20082,0.39682 0.29247,4.35237 0.29247,12.62454 0,11.63934 -0.0172,12.05587 -0.51179,12.32051 -0.77911,0.41698 -29.97284,0.3751 -30.39154,-0.0436 z m -14.07584,-58.27525 c -0.59656,-12.70276 -4.24335,-23.29989 -10.62357,-33.54109 -1.6155,-2.52537 -3.76637,-3.86056 -6.60197,-4.09829 l -1.83272,-0.15365 -0.98806,1.04193 c -0.94609,0.99767 -1.70971,2.32889 -2.48217,4.32718 -0.44964,1.16322 -0.48142,6.43329 -0.0455,7.54063 0.17188,0.43656 1.1625,3.47266 2.20138,6.74687 2.92199,9.20914 3.35698,10.15667 5.92114,12.89778 3.49637,3.73764 7.45615,5.4846 12.66551,5.58771 1.40163,0.0277 1.78593,-0.0474 1.78593,-0.34907 z M 317.6971,187.78871 c 1.65832,-0.5851 6.15529,-3.25641 7.22755,-4.29337 0.5282,-0.5108 1.30211,-1.60316 1.71979,-2.42745 1.01776,-2.00855 1.05313,-5.01636 0.083,-7.05498 -2.06009,-4.32888 -7.11531,-6.11869 -11.36209,-4.02277 -5.83766,2.88107 -7.65915,4.67899 -8.43128,8.32225 -0.65943,3.1115 0.99796,6.8004 3.84626,8.56075 2.02858,1.25373 4.88623,1.63198 6.9168,0.91557 z m -28.25053,-47.24757 c 1.52403,-0.28902 6.59312,-2.9834 7.87617,-4.18642 2.14577,-2.01194 3.19565,-5.0747 2.66468,-7.77355 -1.12314,-5.70878 -7.41615,-8.60983 -12.53564,-5.77887 -4.99919,2.76443 -6.19725,3.75167 -7.27458,5.99448 -0.92392,1.92346 -0.89755,5.2704 0.0561,7.11613 1.3195,2.55388 3.61518,4.2493 6.29246,4.64716 0.65485,0.0973 1.26368,0.19284 1.35295,0.21228 0.0893,0.0195 0.79483,-0.0846 1.56789,-0.23121 z M 262.87673,92.930588 c 2.09364,-0.6873 6.71095,-3.4724 7.78523,-4.69592 2.84315,-3.23818 2.75137,-7.91589 -0.22018,-11.22097 -1.73637,-1.93126 -3.38439,-2.62105 -6.21474,-2.6012 -2.37796,0.0167 -2.87746,0.19491 -6.54089,2.33411 -4.01134,2.34235 -5.54363,4.59373 -5.55227,8.1579 -0.009,3.85301 2.49382,7.10938 6.26083,8.14476 1.80109,0.49503 2.68375,0.47166 4.48202,-0.11868 z m -26.22496,-47.77923 c 6.45996,-3.17245 8.62022,-5.653776 8.57883,-9.853843 -0.023,-2.335062 -0.29649,-3.240331 -1.48769,-4.924486 -1.99028,-2.813902 -5.82917,-4.252818 -8.79214,-3.295526 -1.12231,0.362601 -2.2381,0.862399 -3.32608,1.489861 -4.4795,2.583415 -5.52288,3.594169 -6.42566,6.224725 -0.64469,1.878515 -0.73706,3.333366 -0.29884,4.706821 0.88742,2.781308 2.36721,4.525078 4.83549,5.698078 1.17636,0.55904 1.66331,0.63462 3.6088,0.56018 1.55837,-0.0596 2.57394,-0.24566 3.30729,-0.60581 z M 209.74198,-2.5477639 c 3.38827,-1.721794 5.47992,-3.155283 6.44677,-4.418221 3.28985,-4.2973101 1.80423,-10.4684231 -3.08489,-12.8143831 -1.06916,-0.513016 -1.7543,-0.636471 -3.57188,-0.643606 -2.4016,-0.0094 -2.56767,0.05407 -7.43021,2.840828 -1.67434,0.959583 -3.22733,2.546157 -3.97148,4.05738 -0.90435,1.836553 -0.91023,5.5034501 -0.0116,7.2250941 1.15409,2.211036 3.24351,3.944419 5.46015,4.529738 0.43657,0.115277 1.63389,0.174638 2.66073,0.131914 1.46956,-0.06115 2.2151,-0.254588 3.50239,-0.908744 z"
       id="path896"
       sodipodi:nodetypes="sscsscccssssscssssssssssssssssssscsssssssssssssscsssssssssssssssssssscsssssssssccssssssssssscssssssssssssssssssssssssscssssssscsssssssssssssssssssssssssssssssssssssssssssssssssssssssssssssssssssssscccssssssssccscccsssssssssssssssssscsssssssssssssssscssssssssssssssssssssssssssssssssssssssssssssssssssssssssssscsssssssssssssssssssssssssssssssssssssssssssssssssssssscccssssssccscssssssscsssssssssssssssssssssssscsssssssssssssssssssssss" />
    <path
       style="fill:#000000;fill-opacity:1;stroke:#000000;stroke-width:0.264583px;stroke-linecap:butt;stroke-linejoin:miter;stroke-opacity:1"
       d="m 140.88409,-15.094778 47.78043,-27.553023 -16.3848,-16.648231 -46.37486,26.707271 14.43254,17.712655 z"
       id="path1029" />
    <path
       style="fill:#000000;fill-opacity:1;stroke:#000000;stroke-width:0.264583px;stroke-linecap:butt;stroke-linejoin:miter;stroke-opacity:1"
       d="m 287.51694,238.52341 37.17472,-21.64879 19.24339,38.70543 34.98794,6.34158 11.80843,42.20423 v 8.63764 h -57.51144 l -31.34921,-17.77145 -9.76167,-47.06562 z"
       id="path1177"
       sodipodi:nodetypes="cccccccccc" />
    <path
       style="fill:#000000;fill-opacity:1;stroke:#000000;stroke-width:0.264583px;stroke-linecap:butt;stroke-linejoin:miter;stroke-opacity:1"
       d="M 143.02109,5.7827066 201.56214,-28.453336 193.01937,-7.5549034 205.26515,4.3082067 223.08716,0.97341374 154.41864,40.619201 165.65833,24.920375 159.09809,8.0824172 c 0,0 -9.45768,-1.3667166 -9.89503,-1.3120486 -0.43735,0.054668 -7.98163,1.3667168 -7.98163,1.3667168 z"
       id="path1302"
       sodipodi:nodetypes="ccccccccscc" />
    <path
       style="fill:#000000;fill-opacity:1;stroke:#000000;stroke-width:0.264583px;stroke-linecap:butt;stroke-linejoin:miter;stroke-opacity:1"
       d="m 168.81713,53.939339 58.54105,-34.236042 -8.54277,20.898432 12.24578,11.863111 17.82201,-3.334793 -68.66852,39.645787 11.23969,-15.698826 -6.56024,-16.837958 c 0,0 -9.45768,-1.366717 -9.89503,-1.312049 -0.43735,0.05467 -7.98163,1.366717 -7.98163,1.366717 z"
       id="path1302-3"
       sodipodi:nodetypes="ccccccccscc" />
    <path
       style="fill:#000000;fill-opacity:1;stroke:#000000;stroke-width:0.264583px;stroke-linecap:butt;stroke-linejoin:miter;stroke-opacity:1"
       d="m 195.43778,102.00544 58.54105,-34.23604 -8.54277,20.898432 12.24578,11.863108 17.82201,-3.33479 -68.66852,39.64579 11.23969,-15.69883 -6.56024,-16.83796 c 0,0 -9.45768,-1.36671 -9.89503,-1.31204 -0.43735,0.0547 -7.98163,1.36671 -7.98163,1.36671 z"
       id="path1302-3-6"
       sodipodi:nodetypes="ccccccccscc" />
    <path
       style="fill:#000000;fill-opacity:1;stroke:#000000;stroke-width:0.264583px;stroke-linecap:butt;stroke-linejoin:miter;stroke-opacity:1"
       d="m 224.53684,148.33913 58.54105,-34.23604 -8.54277,20.89844 12.24578,11.8631 17.82201,-3.33479 -68.66852,39.64579 11.23969,-15.69883 -6.56024,-16.83796 c 0,0 -9.45768,-1.36671 -9.89503,-1.31204 -0.43735,0.0547 -7.98163,1.36671 -7.98163,1.36671 z"
       id="path1302-3-6-7"
       sodipodi:nodetypes="ccccccccscc" />
    <path
       style="fill:#000000;fill-opacity:1;stroke:#000000;stroke-width:0.264583px;stroke-linecap:butt;stroke-linejoin:miter;stroke-opacity:1"
       d="m 248.53903,197.62936 58.54105,-34.23604 -8.54277,20.89844 12.24578,11.8631 17.82201,-3.33479 -68.66852,39.64579 11.23969,-15.69883 -6.56024,-16.83796 c 0,0 -9.45768,-1.36671 -9.89503,-1.31204 -0.43735,0.0547 -7.98163,1.36671 -7.98163,1.36671 z"
       id="path1302-3-6-7-5"
       sodipodi:nodetypes="ccccccccscc" />
    <ellipse
       style="fill:#000000;fill-opacity:1;stroke:none;stroke-width:2.64583;stroke-linecap:round;stroke-linejoin:round"
       id="path2126"
       cx="228.52565"
       cy="356.59476"
       rx="13.16715"
       ry="23.917408"
       transform="rotate(-23.206312)" />
    <path
       style="fill:#010101;fill-opacity:1;stroke:none;stroke-width:0.264583px;stroke-linecap:butt;stroke-linejoin:miter;stroke-opacity:1"
       d="m 135.37835,-38.193915 55.20855,-31.940095 8.19521,15.281484 -21.0292,6.648939 z"
       id="path2313"
       sodipodi:nodetypes="ccccc" />
  </g>
</svg>
